<?xml version="1.0" encoding="UTF-8" standalone="no"?>
<!DOCTYPE svg PUBLIC "-//W3C//DTD SVG 1.1//EN" "http://www.w3.org/Graphics/SVG/1.1/DTD/svg11.dtd">
<svg width="100%" height="100%" viewBox="0 0 51 51" version="1.1" xmlns="http://www.w3.org/2000/svg" xmlns:xlink="http://www.w3.org/1999/xlink" xml:space="preserve" xmlns:serif="http://www.serif.com/" style="fill-rule:evenodd;clip-rule:evenodd;stroke-linecap:round;stroke-linejoin:round;stroke-miterlimit:1.5;">
    <g id="Layer1">
    </g>
    <g transform="matrix(1.11024,-0.000994046,0.000994046,1.11024,-27.3969,-0.960743)">
        <g id="Layer2">
            <path d="M46.748,4.134C46.867,3.843 47.151,3.653 47.466,3.653C47.781,3.653 48.064,3.843 48.184,4.134L53.479,17.006C53.53,17.129 53.613,17.235 53.721,17.313C53.828,17.392 53.955,17.438 54.088,17.448L67.967,18.506C68.28,18.53 68.549,18.741 68.646,19.041C68.743,19.34 68.65,19.669 68.41,19.873L57.804,28.886C57.703,28.972 57.628,29.085 57.587,29.211C57.546,29.338 57.54,29.473 57.572,29.602L60.854,43.128C60.928,43.434 60.811,43.755 60.556,43.94C60.301,44.125 59.96,44.138 59.692,43.973L47.842,36.671C47.729,36.601 47.599,36.564 47.466,36.564C47.333,36.564 47.203,36.601 47.09,36.671L35.24,43.973C34.972,44.138 34.63,44.125 34.376,43.94C34.121,43.755 34.003,43.434 34.078,43.128L37.36,29.602C37.391,29.473 37.386,29.338 37.345,29.211C37.304,29.085 37.229,28.972 37.127,28.886L26.521,19.873C26.281,19.669 26.188,19.34 26.286,19.041C26.383,18.741 26.651,18.53 26.965,18.506L40.844,17.448C40.976,17.438 41.103,17.392 41.211,17.313C41.318,17.235 41.402,17.129 41.452,17.006L46.748,4.134Z" style="fill:none;stroke:rgb(255,184,28);stroke-width:3px;"/>
        </g>
    </g>
</svg>
