<?xml version="1.0" encoding="UTF-8" standalone="no"?>
<!DOCTYPE svg PUBLIC "-//W3C//DTD SVG 1.1//EN" "http://www.w3.org/Graphics/SVG/1.1/DTD/svg11.dtd">
<svg width="100%" height="100%" viewBox="0 0 53 53" version="1.1" xmlns="http://www.w3.org/2000/svg" xmlns:xlink="http://www.w3.org/1999/xlink" xml:space="preserve" xmlns:serif="http://www.serif.com/" style="fill-rule:evenodd;clip-rule:evenodd;stroke-linecap:round;stroke-linejoin:round;stroke-miterlimit:1.5;">
    <g id="Layer1" transform="matrix(0.981832,0,0,0.981832,0.477307,0.476063)">
        <path d="M3.269,6.397L10.298,5.342L13.812,9.771C13.812,9.771 17.046,10.626 18.241,9.981C19.436,9.337 20.982,5.905 20.982,5.905C27.705,6.221 34.142,6.361 35.954,3.655C35.954,3.655 36.918,3.608 38.323,3.578C39.026,3.563 39.84,3.552 40.7,3.553C43.811,3.558 47.51,3.723 48.677,4.428C50.662,5.628 48.747,11.387 48.747,11.387L44.67,15.183C44.67,15.183 49.381,16.214 49.731,18.135C50.716,23.536 51.442,42.96 50.575,47.588C50.19,49.644 46.182,45.795 44.53,45.901C43.03,45.996 40.664,48.22 40.664,48.22C33.704,47.519 26.465,47.562 18.944,48.361C18.944,48.361 17.257,46.24 16.132,46.322C15.007,46.404 12.196,48.853 12.196,48.853L4.815,48.782C4.059,48.206 4.253,44.495 4.253,44.495C4.253,44.495 6.176,41.717 8.33,40.84C6.03,40 4.489,38.401 3.128,36.622" style="fill:none;stroke:rgb(255,184,28);stroke-width:3.4px;"/>
        <path d="M8.4,20.455C8.4,20.455 8.54,18.768 11.774,19.541" style="fill:none;stroke:rgb(255,184,28);stroke-width:3.4px;"/>
        <path d="M27.027,26.219C33.682,23.532 33.046,20.67 38.274,24.251" style="fill:none;stroke:rgb(255,184,28);stroke-width:3.4px;"/>
        <path d="M42.14,29.593C43.968,29.523 45.022,29.944 45.022,29.944" style="fill:none;stroke:rgb(255,184,28);stroke-width:3.4px;"/>
        <path d="M3.269,6.397C3.266,10.557 1.6,14.229 1.582,18.206C1.558,23.243 3.467,31.871 3.128,36.622" style="fill:none;stroke:rgb(255,184,28);stroke-width:3.4px;"/>
        <path d="M28.879,18.893C29.797,17.408 30.928,16.877 32.379,17.793" style="fill:none;stroke:rgb(255,184,28);stroke-width:3.4px;"/>
        <path d="M10.979,35.593C13.326,35.719 14.632,36.367 15.379,37.293C19.046,35.766 22.712,34.85 26.379,35.993" style="fill:none;stroke:rgb(255,184,28);stroke-width:3.4px;"/>
        <path d="M39.279,38.793L41.179,38.793" style="fill:none;stroke:rgb(255,184,28);stroke-width:3.4px;"/>
    </g>
</svg>
