<?xml version="1.0" encoding="UTF-8" standalone="no"?>
<!DOCTYPE svg PUBLIC "-//W3C//DTD SVG 1.1//EN" "http://www.w3.org/Graphics/SVG/1.1/DTD/svg11.dtd">
<svg width="100%" height="100%" viewBox="0 0 51 51" version="1.1" xmlns="http://www.w3.org/2000/svg" xmlns:xlink="http://www.w3.org/1999/xlink" xml:space="preserve" xmlns:serif="http://www.serif.com/" style="fill-rule:evenodd;clip-rule:evenodd;stroke-linecap:round;stroke-linejoin:round;stroke-miterlimit:1.5;">
    <g id="Layer1">
        <g transform="matrix(-1,0,0,1,22.8282,0)">
            <g transform="matrix(1,0,0,1,-28.1718,7.10543e-15)">
                <path d="M48.876,40.795C48.876,40.795 49.094,47.592 47.954,47.595C41.805,47.608 25.5,47.595 25.5,47.595" style="fill:none;stroke:rgb(255,184,28);stroke-width:3.33px;"/>
            </g>
            <g transform="matrix(1,0,0,1,-29.2202,0.270557)">
                <path d="M26.548,1.385L26.548,38.654C29.606,30.967 34.268,27.335 40.753,28.305" style="fill:none;stroke:rgb(255,184,28);stroke-width:3.33px;"/>
            </g>
        </g>
        <g transform="matrix(1,0,0,1,28.1718,-7.10543e-15)">
            <g transform="matrix(1,0,0,1,-28.1718,7.10543e-15)">
                <path d="M48.876,40.795C48.876,40.795 49.094,47.592 47.954,47.595C41.805,47.608 25.5,47.595 25.5,47.595" style="fill:none;stroke:rgb(255,184,28);stroke-width:3.33px;"/>
            </g>
            <g transform="matrix(1,0,0,1,-29.2202,0.270557)">
                <path d="M26.548,1.385L26.548,38.654C29.606,30.967 34.268,27.335 40.753,28.305" style="fill:none;stroke:rgb(255,184,28);stroke-width:3.33px;"/>
            </g>
        </g>
    </g>
</svg>
