<?xml version="1.0" encoding="UTF-8" standalone="no"?>
<!DOCTYPE svg PUBLIC "-//W3C//DTD SVG 1.1//EN" "http://www.w3.org/Graphics/SVG/1.1/DTD/svg11.dtd">
<svg width="100%" height="100%" viewBox="0 0 54 54" version="1.1" xmlns="http://www.w3.org/2000/svg" xmlns:xlink="http://www.w3.org/1999/xlink" xml:space="preserve" xmlns:serif="http://www.serif.com/" style="fill-rule:evenodd;clip-rule:evenodd;stroke-linecap:round;stroke-linejoin:round;stroke-miterlimit:1.5;">
    <g>
        <g id="Layer1">
            <g>
                <g transform="matrix(0.977634,0,0,1,0.0782554,0)">
                    <path d="M7.108,28C7.001,24.955 4.898,22.453 2.124,20.477L3.985,16.084" style="fill:none;stroke:rgb(255,184,28);stroke-width:3.37px;"/>
                </g>
                <g transform="matrix(0.706867,-0.707346,-0.707346,-0.706867,27.6654,66.7581)">
                    <path d="M26.71,20.697C28.75,20.704 30.403,21.371 31.829,22.803" style="fill:none;stroke:rgb(255,184,28);stroke-width:3.33px;"/>
                </g>
            </g>
            <g transform="matrix(-1,0,0,1,53.3459,0)">
                <g transform="matrix(0.977634,0,0,1,0.0782554,0)">
                    <path d="M7.108,28C7.001,24.955 4.898,22.453 2.124,20.477L3.985,16.084" style="fill:none;stroke:rgb(255,184,28);stroke-width:3.37px;"/>
                </g>
                <g transform="matrix(0.706867,-0.707346,-0.707346,-0.706867,27.6654,66.7581)">
                    <path d="M26.71,20.697C28.75,20.704 30.403,21.371 31.829,22.803" style="fill:none;stroke:rgb(255,184,28);stroke-width:3.33px;"/>
                </g>
            </g>
            <g transform="matrix(-1,0,0,-1,53.3459,56.1158)">
                <g transform="matrix(0.977634,0,0,1,0.0782554,0)">
                    <path d="M7.108,28C7.001,24.955 4.898,22.453 2.124,20.477L3.985,16.084" style="fill:none;stroke:rgb(255,184,28);stroke-width:3.37px;"/>
                </g>
                <g transform="matrix(0.706867,-0.707346,-0.707346,-0.706867,27.6654,66.7581)">
                    <path d="M26.71,20.697C28.75,20.704 30.403,21.371 31.829,22.803" style="fill:none;stroke:rgb(255,184,28);stroke-width:3.33px;"/>
                </g>
            </g>
            <g transform="matrix(1,0,0,-1,-7.10543e-15,56.1158)">
                <g transform="matrix(0.977634,0,0,1,0.0782554,0)">
                    <path d="M7.108,28C7.001,24.955 4.898,22.453 2.124,20.477L3.985,16.084" style="fill:none;stroke:rgb(255,184,28);stroke-width:3.37px;"/>
                </g>
                <g transform="matrix(0.706867,-0.707346,-0.707346,-0.706867,27.6654,66.7581)">
                    <path d="M26.71,20.697C28.75,20.704 30.403,21.371 31.829,22.803" style="fill:none;stroke:rgb(255,184,28);stroke-width:3.33px;"/>
                </g>
            </g>
        </g>
        <g id="Layer11" serif:id="Layer1" transform="matrix(6.12323e-17,-1,1,6.12323e-17,-1.38494,54.7309)">
            <g>
                <g transform="matrix(0.977634,0,0,1,0.0782554,0)">
                    <path d="M7.108,28C7.001,24.955 4.898,22.453 2.124,20.477L3.985,16.084" style="fill:none;stroke:rgb(255,184,28);stroke-width:3.37px;"/>
                </g>
                <g transform="matrix(0.706867,-0.707346,-0.707346,-0.706867,27.6654,66.7581)">
                    <path d="M26.71,20.697C28.75,20.704 30.403,21.371 31.829,22.803" style="fill:none;stroke:rgb(255,184,28);stroke-width:3.33px;"/>
                </g>
            </g>
            <g transform="matrix(-1,0,0,1,53.3459,0)">
                <g transform="matrix(0.977634,0,0,1,0.0782554,0)">
                    <path d="M7.108,28C7.001,24.955 4.898,22.453 2.124,20.477L3.985,16.084" style="fill:none;stroke:rgb(255,184,28);stroke-width:3.37px;"/>
                </g>
                <g transform="matrix(0.706867,-0.707346,-0.707346,-0.706867,27.6654,66.7581)">
                    <path d="M26.71,20.697C28.75,20.704 30.403,21.371 31.829,22.803" style="fill:none;stroke:rgb(255,184,28);stroke-width:3.33px;"/>
                </g>
            </g>
            <g transform="matrix(-1,0,0,-1,53.3459,56.1158)">
                <g transform="matrix(0.977634,0,0,1,0.0782554,0)">
                    <path d="M7.108,28C7.001,24.955 4.898,22.453 2.124,20.477L3.985,16.084" style="fill:none;stroke:rgb(255,184,28);stroke-width:3.37px;"/>
                </g>
                <g transform="matrix(0.706867,-0.707346,-0.707346,-0.706867,27.6654,66.7581)">
                    <path d="M26.71,20.697C28.75,20.704 30.403,21.371 31.829,22.803" style="fill:none;stroke:rgb(255,184,28);stroke-width:3.33px;"/>
                </g>
            </g>
            <g transform="matrix(1,0,0,-1,-7.10543e-15,56.1158)">
                <g transform="matrix(0.977634,0,0,1,0.0782554,0)">
                    <path d="M7.108,28C7.001,24.955 4.898,22.453 2.124,20.477L3.985,16.084" style="fill:none;stroke:rgb(255,184,28);stroke-width:3.37px;"/>
                </g>
                <g transform="matrix(0.706867,-0.707346,-0.707346,-0.706867,27.6654,66.7581)">
                    <path d="M26.71,20.697C28.75,20.704 30.403,21.371 31.829,22.803" style="fill:none;stroke:rgb(255,184,28);stroke-width:3.33px;"/>
                </g>
            </g>
        </g>
        <g id="Layer12" serif:id="Layer1" transform="matrix(0.706867,-0.707346,0.707346,0.706867,-12.0279,27.0917)">
            <g>
                <g transform="matrix(0.977634,0,0,1,0.0782554,0)">
                    <path d="M7.108,28C7.001,24.955 4.898,22.453 2.124,20.477L3.985,16.084" style="fill:none;stroke:rgb(255,184,28);stroke-width:3.37px;"/>
                </g>
                <g transform="matrix(0.706867,-0.707346,-0.707346,-0.706867,27.6654,66.7581)">
                    <path d="M26.71,20.697C28.75,20.704 30.403,21.371 31.829,22.803" style="fill:none;stroke:rgb(255,184,28);stroke-width:3.33px;"/>
                </g>
            </g>
            <g transform="matrix(-1,0,0,1,53.3459,0)">
                <g transform="matrix(0.977634,0,0,1,0.0782554,0)">
                    <path d="M7.108,28C7.001,24.955 4.898,22.453 2.124,20.477L3.985,16.084" style="fill:none;stroke:rgb(255,184,28);stroke-width:3.37px;"/>
                </g>
                <g transform="matrix(0.706867,-0.707346,-0.707346,-0.706867,27.6654,66.7581)">
                    <path d="M26.71,20.697C28.75,20.704 30.403,21.371 31.829,22.803" style="fill:none;stroke:rgb(255,184,28);stroke-width:3.33px;"/>
                </g>
            </g>
            <g transform="matrix(-1,0,0,-1,53.3459,56.1158)">
                <g transform="matrix(0.977634,0,0,1,0.0782554,0)">
                    <path d="M7.108,28C7.001,24.955 4.898,22.453 2.124,20.477L3.985,16.084" style="fill:none;stroke:rgb(255,184,28);stroke-width:3.37px;"/>
                </g>
                <g transform="matrix(0.706867,-0.707346,-0.707346,-0.706867,27.6654,66.7581)">
                    <path d="M26.71,20.697C28.75,20.704 30.403,21.371 31.829,22.803" style="fill:none;stroke:rgb(255,184,28);stroke-width:3.33px;"/>
                </g>
            </g>
            <g transform="matrix(1,0,0,-1,-7.10543e-15,56.1158)">
                <g transform="matrix(0.977634,0,0,1,0.0782554,0)">
                    <path d="M7.108,28C7.001,24.955 4.898,22.453 2.124,20.477L3.985,16.084" style="fill:none;stroke:rgb(255,184,28);stroke-width:3.37px;"/>
                </g>
                <g transform="matrix(0.706867,-0.707346,-0.707346,-0.706867,27.6654,66.7581)">
                    <path d="M26.71,20.697C28.75,20.704 30.403,21.371 31.829,22.803" style="fill:none;stroke:rgb(255,184,28);stroke-width:3.33px;"/>
                </g>
            </g>
        </g>
        <g id="Layer2">
        </g>
        <g id="Layer13" serif:id="Layer1" transform="matrix(-0.707346,-0.706867,0.706867,-0.707346,25.7068,66.7588)">
            <g>
                <g transform="matrix(0.977634,0,0,1,0.0782554,0)">
                    <path d="M7.108,28C7.001,24.955 4.898,22.453 2.124,20.477L3.985,16.084" style="fill:none;stroke:rgb(255,184,28);stroke-width:3.37px;"/>
                </g>
                <g transform="matrix(0.706867,-0.707346,-0.707346,-0.706867,27.6654,66.7581)">
                    <path d="M26.71,20.697C28.75,20.704 30.403,21.371 31.829,22.803" style="fill:none;stroke:rgb(255,184,28);stroke-width:3.33px;"/>
                </g>
            </g>
            <g transform="matrix(-1,0,0,1,53.3459,0)">
                <g transform="matrix(0.977634,0,0,1,0.0782554,0)">
                    <path d="M7.108,28C7.001,24.955 4.898,22.453 2.124,20.477L3.985,16.084" style="fill:none;stroke:rgb(255,184,28);stroke-width:3.37px;"/>
                </g>
                <g transform="matrix(0.706867,-0.707346,-0.707346,-0.706867,27.6654,66.7581)">
                    <path d="M26.71,20.697C28.75,20.704 30.403,21.371 31.829,22.803" style="fill:none;stroke:rgb(255,184,28);stroke-width:3.33px;"/>
                </g>
            </g>
            <g transform="matrix(-1,0,0,-1,53.3459,56.1158)">
                <g transform="matrix(0.977634,0,0,1,0.0782554,0)">
                    <path d="M7.108,28C7.001,24.955 4.898,22.453 2.124,20.477L3.985,16.084" style="fill:none;stroke:rgb(255,184,28);stroke-width:3.37px;"/>
                </g>
                <g transform="matrix(0.706867,-0.707346,-0.707346,-0.706867,27.6654,66.7581)">
                    <path d="M26.71,20.697C28.75,20.704 30.403,21.371 31.829,22.803" style="fill:none;stroke:rgb(255,184,28);stroke-width:3.33px;"/>
                </g>
            </g>
            <g transform="matrix(1,0,0,-1,-7.10543e-15,56.1158)">
                <g transform="matrix(0.977634,0,0,1,0.0782554,0)">
                    <path d="M7.108,28C7.001,24.955 4.898,22.453 2.124,20.477L3.985,16.084" style="fill:none;stroke:rgb(255,184,28);stroke-width:3.37px;"/>
                </g>
                <g transform="matrix(0.706867,-0.707346,-0.707346,-0.706867,27.6654,66.7581)">
                    <path d="M26.71,20.697C28.75,20.704 30.403,21.371 31.829,22.803" style="fill:none;stroke:rgb(255,184,28);stroke-width:3.33px;"/>
                </g>
            </g>
        </g>
    </g>
</svg>
